HIERARCHY
ROOT Hips
{
	OFFSET	0.00	0.00	0.00
	CHANNELS 6 Xposition Yposition Zposition Zrotation Xrotation Yrotation
	JOINT LeftUpLeg
	{
		OFFSET	 0.126116	-0.065224	 0.014019
		CHANNELS 3 Zrotation Xrotation Yrotation
		JOINT LeftLeg
		{
			OFFSET	 0.000000	 0.569914	 0.000000
			CHANNELS 3 Zrotation Xrotation Yrotation
			JOINT LeftFoot
			{
				OFFSET	 0.000000	 0.544423	 0.000000
				CHANNELS 3 Zrotation Xrotation Yrotation
				JOINT LeftToeBase
				{
					OFFSET	 0.000000	 0.207117	 0.000000
					CHANNELS 3 Zrotation Xrotation Yrotation
					End Site
					{
						OFFSET	 0.000000	 0.207117	 0.000000
					}
				}
			}
		}
	}
	JOINT RightUpLeg
	{
		OFFSET	-0.124023	-0.065224	 0.008373
		CHANNELS 3 Zrotation Xrotation Yrotation
		JOINT RightLeg
		{
			OFFSET	 0.000000	 0.570047	 0.000000
			CHANNELS 3 Zrotation Xrotation Yrotation
			JOINT RightFoot
			{
				OFFSET	 0.000000	 0.544354	 0.000000
				CHANNELS 3 Zrotation Xrotation Yrotation
				JOINT RightToeBase
				{
					OFFSET	 0.000000	 0.207540	 0.000000
					CHANNELS 3 Zrotation Xrotation Yrotation
					End Site
					{
						OFFSET	 0.000000	 0.207540	 0.000000
					}
				}
			}
		}
	}
	JOINT Spine
	{
		OFFSET	 0.000184	 0.117403	 0.007763
		CHANNELS 3 Zrotation Xrotation Yrotation
		JOINT Spine1
		{
			OFFSET	 0.000000	 0.137269	 0.000000
			CHANNELS 3 Zrotation Xrotation Yrotation
			JOINT Spine2
			{
				OFFSET	 0.000000	 0.156879	 0.000000
				CHANNELS 3 Zrotation Xrotation Yrotation
				JOINT LeftShoulder
				{
					OFFSET	 0.080501	 0.160143	 0.002496
					CHANNELS 3 Zrotation Xrotation Yrotation
					JOINT LeftArm
					{
						OFFSET	 0.000000	 0.164363	 0.000000
						CHANNELS 3 Zrotation Xrotation Yrotation
						JOINT LeftForeArm
						{
							OFFSET	 0.000000	 0.364576	 0.000000
							CHANNELS 3 Zrotation Xrotation Yrotation
							JOINT LeftHand
							{
								OFFSET	 0.000000	 0.360812	 0.000000
								CHANNELS 3 Zrotation Xrotation Yrotation
								JOINT LeftHandIndex1
								{
									OFFSET	 0.000000	 0.086006	 0.000000
									CHANNELS 3 Zrotation Xrotation Yrotation
									JOINT LeftHandIndex2
									{
										OFFSET	 0.000000	 0.047237	 0.000000
										CHANNELS 3 Zrotation Xrotation Yrotation
										JOINT LeftHandIndex3
										{
											OFFSET	-0.004284	 0.038165	 0.000551
											CHANNELS 3 Zrotation Xrotation Yrotation
											End Site
											{
												OFFSET	-0.004284	 0.038165	 0.000551
											}
										}
									}
								}
							}
						}
					}
				}
				JOINT Neck
				{
					OFFSET	 0.000000	 0.176489	 0.000000
					CHANNELS 3 Zrotation Xrotation Yrotation
					JOINT Head
					{
						OFFSET	 0.000000	 0.077941	 0.001747
						CHANNELS 3 Zrotation Xrotation Yrotation
						End Site
						{
							OFFSET	 0.000000	 0.077941	 0.001747
						}
					}
				}
				JOINT RightShoulder
				{
					OFFSET	-0.080363	 0.159706	-0.000306
					CHANNELS 3 Zrotation Xrotation Yrotation
					JOINT RightArm
					{
						OFFSET	 0.000000	 0.164196	 0.000000
						CHANNELS 3 Zrotation Xrotation Yrotation
						JOINT RightForeArm
						{
							OFFSET	 0.000000	 0.365611	 0.000000
							CHANNELS 3 Zrotation Xrotation Yrotation
							JOINT RightHand
							{
								OFFSET	 0.000000	 0.360648	 0.000000
								CHANNELS 3 Zrotation Xrotation Yrotation
								JOINT RightHandIndex1
								{
									OFFSET	 0.000000	 0.069977	 0.000000
									CHANNELS 3 Zrotation Xrotation Yrotation
									JOINT RightHandIndex2
									{
										OFFSET	 0.000000	 0.052305	 0.000000
										CHANNELS 3 Zrotation Xrotation Yrotation
										JOINT RightHandIndex3
										{
											OFFSET	 0.009002	 0.042196	 0.000782
											CHANNELS 3 Zrotation Xrotation Yrotation
											End Site
											{
												OFFSET	 0.009002	 0.042196	 0.000782
											}
										}
									}
								}
							}
						}
					}
				}
			}
		}
	}
}
MOTION
Frames:    5
Frame Time: 0.03333334
-0.017586	 1.255482	 0.114984	 4.830849	 0.308935	 173.969800	 174.553800	 15.264560	 38.921850	 3.151736	-30.808630	 1.456782	 53.628850	 48.992770	-69.635250	 4.912824	 28.009660	-6.307254	-165.325900	-2.540488	-31.686820	-0.441063	-5.104057	 2.129888	-50.643880	 49.769450	 48.286850	-0.377999	 31.173510	 1.634533	 1.376602	 3.863771	-14.625200	 9.193491	 9.602432	-7.987998	-7.744830	-7.612449	 25.249760	-112.558300	 3.121933	 88.313270	-11.788250	 51.251170	 36.701220	 30.907900	-1.551418	 0.996560	-44.963580	-3.629722	-96.777400	-8.008699	 12.516400	-5.835330	-7.228779	 12.662460	 2.803799	 4.963066	-4.014628	-0.346955	 1.513194	-13.907160	 1.355657	-2.502723	 7.814517	-15.266020	 109.119400	 0.679354	-88.597550	-14.150820	 68.625970	 13.520960	-5.095582	-0.470955	 41.358660	-33.488750	 18.690410	-96.457430	 2.007540	 8.287066	 8.960495	 15.202920	 20.251780	-6.344958	-8.239867	-2.131385	 0.447455
-0.018386	 1.255848	 0.114728	 5.051013	 0.247349	 174.055000	 174.661900	 15.387520	 39.006100	 3.177587	-31.014660	 1.507666	 53.600850	 49.010910	-69.658880	 4.912827	 28.009680	-6.307241	-165.135800	-2.498379	-31.583720	-0.440794	-5.100977	 2.036905	-50.598110	 49.692310	 48.322980	-0.385801	 31.183030	 1.642270	 1.486804	 3.722934	-14.550580	 10.387990	 10.291890	-8.256356	-9.070728	-8.700474	 25.053500	-112.513900	 3.066412	 88.305660	-12.828090	 50.406010	 37.214180	 32.161370	-1.607636	 1.029065	-44.364000	-3.639745	-96.367280	-7.957592	 12.558290	-5.847997	-7.229011	 12.652740	 2.802472	 4.963066	-4.014628	-0.346955	 1.467406	-13.837600	 1.379078	-2.524512	 7.588567	-15.663700	 109.064000	 0.721718	-88.619060	-13.740350	 69.232320	 13.255230	-5.087386	-0.470159	 41.222500	-35.988920	 18.869600	-96.091670	 1.963564	 8.168432	 8.959403	 15.203090	 20.278100	-6.352160	-8.239867	-2.131385	 0.447455
-0.019355	 1.256146	 0.114313	 5.280971	 0.157403	 174.190800	 174.743100	 15.557800	 39.146870	 3.209985	-31.271580	 1.582099	 53.583240	 49.026950	-69.709110	 4.912830	 28.009700	-6.307220	-164.940600	-2.430866	-31.432330	-0.440493	-5.097497	 1.895925	-50.582890	 49.588550	 48.415500	-0.397923	 31.197840	 1.654291	 1.644486	 3.579701	-14.478870	 11.617840	 10.966430	-8.567366	-10.480640	-9.847309	 24.828750	-112.445000	 2.980152	 88.293940	-13.928100	 49.516380	 37.670740	 33.485260	-1.666136	 1.063756	-43.964970	-3.706651	-95.763390	-7.878184	 12.623330	-5.867746	-7.229372	 12.637640	 2.800411	 4.963066	-4.014628	-0.346955	 1.396264	-13.729600	 1.415552	-2.533325	 7.472525	-16.390120	 108.977900	 0.787541	-88.652330	-13.168950	 69.896760	 12.924380	-5.079222	-0.469422	 41.011760	-38.962330	 19.087260	-95.669380	 1.895284	 7.984184	 8.957525	 15.203370	 20.318970	-6.363346	-8.239867	-2.131385	 0.447455
-0.020359	 1.256364	 0.113738	 5.469063	 0.035893	 174.379500	 174.770400	 15.762370	 39.336460	 3.241561	-31.520760	 1.671343	 53.562220	 49.036640	-69.755910	 4.912836	 28.009730	-6.307194	-164.784000	-2.330150	-31.246840	-0.440394	-5.096518	 1.720931	-50.616710	 49.464390	 48.572670	-0.413491	 31.216850	 1.669731	 1.806865	 3.437636	-14.413900	 12.708700	 11.532780	-8.875006	-11.785140	-10.900970	 24.594790	-112.356600	 2.869366	 88.278980	-14.948230	 48.692090	 37.998580	 34.687620	-1.718410	 1.095211	-43.836280	-3.860964	-94.984210	-7.776185	 12.706770	-5.893240	-7.229836	 12.618260	 2.797765	 4.963066	-4.014628	-0.346955	 1.304881	-13.591030	 1.462554	-2.524363	 7.529040	-17.408890	 108.867500	 0.872128	-88.694920	-12.444280	 70.540960	 12.524670	-5.072601	-0.468791	 40.741660	-42.089710	 19.302860	-95.201100	 1.807665	 7.747654	 8.954791	 15.203750	 20.371440	-6.377712	-8.239867	-2.131385	 0.447455
-0.021421	 1.256424	 0.112952	 5.618359	-0.108748	 174.613400	 174.736300	 15.997970	 39.573430	 3.275786	-31.789280	 1.775087	 53.556950	 49.047600	-69.823820	 4.912843	 28.009770	-6.307164	-164.665600	-2.209099	-31.028340	-0.440412	-5.096621	 1.518722	-50.694380	 49.329530	 48.785550	-0.432233	 31.239710	 1.688318	 1.967049	 3.303504	-14.339350	 13.657350	 11.995780	-9.156366	-12.968860	-11.846200	 24.344810	-112.250300	 2.736079	 88.261260	-15.896620	 47.942490	 38.215330	 35.766990	-1.764680	 1.123130	-43.961110	-4.137583	-94.008830	-7.653373	 12.807110	-5.924127	-7.230396	 12.594940	 2.794582	 4.963066	-4.014628	-0.346955	 1.194850	-13.424410	 1.519367	-2.493801	 7.781493	-18.707280	 108.734700	 0.973974	-88.745920	-11.531120	 71.142060	 12.019630	-5.065231	-0.468156	 40.417760	-45.328540	 19.485970	-94.651440	 1.702290	 7.463068	 8.951020	 15.204220	 20.434560	-6.395001	-8.239867	-2.131385	 0.447455
